<?xml version="1.0" encoding="UTF-8" standalone="no"?>
<!DOCTYPE svg PUBLIC "-//W3C//DTD SVG 1.1//EN"
 "http://www.w3.org/Graphics/SVG/1.1/DTD/svg11.dtd">
<!-- Generated by graphviz version 2.40.1 (20161225.0304)
 -->
<!-- Title: dependencies Pages: 1 -->
<svg width="944pt" height="284pt"
 viewBox="0.00 0.00 944.00 284.00" xmlns="http://www.w3.org/2000/svg" xmlns:xlink="http://www.w3.org/1999/xlink">
<g id="graph0" class="graph" transform="scale(1 1) rotate(0) translate(4 280)">
<title>dependencies</title>
<polygon fill="#ffffff" stroke="transparent" points="-4,4 -4,-280 940,-280 940,4 -4,4"/>
<text text-anchor="start" x="447.0091" y="-42.4" font-family="sans-serif" font-weight="bold" font-size="14.00" fill="#000000">Legend</text>
<polygon fill="#ffffb3" stroke="transparent" points="234,-10 234,-30 254,-30 254,-10 234,-10"/>
<text text-anchor="start" x="257.629" y="-15.4" font-family="sans-serif" font-size="14.00" fill="#000000"> &#160;Declarations</text>
<polygon fill="#8dd3c7" stroke="transparent" points="347,-10 347,-30 367,-30 367,-10 347,-10"/>
<text text-anchor="start" x="370.7251" y="-15.4" font-family="sans-serif" font-size="14.00" fill="#000000"> &#160;Module</text>
<polygon fill="#80b1d3" stroke="transparent" points="433,-10 433,-30 453,-30 453,-10 433,-10"/>
<text text-anchor="start" x="456.7812" y="-15.4" font-family="sans-serif" font-size="14.00" fill="#000000"> &#160;Bootstrap</text>
<polygon fill="#fdb462" stroke="transparent" points="530,-10 530,-30 550,-30 550,-10 530,-10"/>
<text text-anchor="start" x="553.6732" y="-15.4" font-family="sans-serif" font-size="14.00" fill="#000000"> &#160;Providers</text>
<polygon fill="#fb8072" stroke="transparent" points="626,-10 626,-30 646,-30 646,-10 626,-10"/>
<text text-anchor="start" x="649.7258" y="-15.4" font-family="sans-serif" font-size="14.00" fill="#000000"> &#160;Exports</text>
<g id="clust1" class="cluster">
<title>cluster_AppModule</title>
<polygon fill="none" stroke="#000000" stroke-dasharray="1,5" points="8,-70 8,-268 928,-268 928,-70 8,-70"/>
</g>
<g id="clust2" class="cluster">
<title>cluster_AppModule_declarations</title>
<polygon fill="none" stroke="#000000" points="798,-78 798,-130 920,-130 920,-78 798,-78"/>
</g>
<g id="clust4" class="cluster">
<title>cluster_AppModule_imports</title>
<polygon fill="none" stroke="#000000" points="646,-78 646,-130 790,-130 790,-78 646,-78"/>
</g>
<g id="clust6" class="cluster">
<title>cluster_AppModule_bootstrap</title>
<polygon fill="none" stroke="#000000" points="427,-208 427,-260 551,-260 551,-208 427,-208"/>
</g>
<g id="clust7" class="cluster">
<title>cluster_AppModule_providers</title>
<polygon fill="none" stroke="#000000" points="16,-78 16,-130 638,-130 638,-78 16,-78"/>
</g>
<!-- AppComponent -->
<g id="node1" class="node">
<title>AppComponent</title>
<polygon fill="#ffffb3" stroke="#000000" points="911.9399,-122 806.0601,-122 806.0601,-86 911.9399,-86 911.9399,-122"/>
<text text-anchor="middle" x="859" y="-99.8" font-family="Times,serif" font-size="14.00" fill="#000000">AppComponent</text>
</g>
<!-- AppModule -->
<g id="node2" class="node">
<title>AppModule</title>
<polygon fill="#8dd3c7" stroke="#000000" points="530.6571,-187 527.6571,-191 506.6571,-191 503.6571,-187 447.3429,-187 447.3429,-151 530.6571,-151 530.6571,-187"/>
<text text-anchor="middle" x="489" y="-164.8" font-family="Times,serif" font-size="14.00" fill="#000000">AppModule</text>
</g>
<!-- AppComponent&#45;&gt;AppModule -->
<g id="edge1" class="edge">
<title>AppComponent&#45;&gt;AppModule</title>
<path fill="none" stroke="#000000" d="M859,-122.2843C859,-143.3211 859,-175 859,-175 859,-175 540.7245,-175 540.7245,-175"/>
<polygon fill="#000000" stroke="#000000" points="540.7245,-171.5001 530.7245,-175 540.7244,-178.5001 540.7245,-171.5001"/>
</g>
<!-- AppComponent  -->
<g id="node4" class="node">
<title>AppComponent </title>
<polygon fill="#80b1d3" stroke="#000000" points="543.439,-252 434.561,-252 434.561,-216 543.439,-216 543.439,-252"/>
<text text-anchor="middle" x="489" y="-229.8" font-family="Times,serif" font-size="14.00" fill="#000000">AppComponent </text>
</g>
<!-- AppModule&#45;&gt;AppComponent  -->
<g id="edge3" class="edge">
<title>AppModule&#45;&gt;AppComponent </title>
<path fill="none" stroke="#000000" stroke-dasharray="1,5" d="M489,-187.1061C489,-187.1061 489,-205.991 489,-205.991"/>
<polygon fill="#000000" stroke="#000000" points="485.5001,-205.9909 489,-215.991 492.5001,-205.991 485.5001,-205.9909"/>
</g>
<!-- AppRoutingModule -->
<g id="node3" class="node">
<title>AppRoutingModule</title>
<polygon fill="#8dd3c7" stroke="#000000" points="782.2744,-122 779.2744,-126 758.2744,-126 755.2744,-122 653.7256,-122 653.7256,-86 782.2744,-86 782.2744,-122"/>
<text text-anchor="middle" x="718" y="-99.8" font-family="Times,serif" font-size="14.00" fill="#000000">AppRoutingModule</text>
</g>
<!-- AppRoutingModule&#45;&gt;AppModule -->
<g id="edge2" class="edge">
<title>AppRoutingModule&#45;&gt;AppModule</title>
<path fill="none" stroke="#000000" d="M718,-122.0225C718,-139.3734 718,-163 718,-163 718,-163 540.7359,-163 540.7359,-163"/>
<polygon fill="#000000" stroke="#000000" points="540.7359,-159.5001 530.7359,-163 540.7358,-166.5001 540.7359,-159.5001"/>
</g>
<!-- AuthService -->
<g id="node5" class="node">
<title>AuthService</title>
<ellipse fill="#fdb462" stroke="#000000" cx="571" cy="-104" rx="59.1083" ry="18"/>
<text text-anchor="middle" x="571" y="-99.8" font-family="Times,serif" font-size="14.00" fill="#000000">AuthService</text>
</g>
<!-- AuthService&#45;&gt;AppModule -->
<g id="edge4" class="edge">
<title>AuthService&#45;&gt;AppModule</title>
<path fill="none" stroke="#000000" d="M521.2622,-113.8721C521.2622,-113.8721 521.2622,-140.9074 521.2622,-140.9074"/>
<polygon fill="#000000" stroke="#000000" points="517.7623,-140.9073 521.2622,-150.9074 524.7623,-140.9074 517.7623,-140.9073"/>
</g>
<!-- EstadisticasService -->
<g id="node6" class="node">
<title>EstadisticasService</title>
<ellipse fill="#fdb462" stroke="#000000" cx="408" cy="-104" rx="85.6628" ry="18"/>
<text text-anchor="middle" x="408" y="-99.8" font-family="Times,serif" font-size="14.00" fill="#000000">EstadisticasService</text>
</g>
<!-- EstadisticasService&#45;&gt;AppModule -->
<g id="edge5" class="edge">
<title>EstadisticasService&#45;&gt;AppModule</title>
<path fill="none" stroke="#000000" d="M470.3766,-116.5327C470.3766,-116.5327 470.3766,-140.8507 470.3766,-140.8507"/>
<polygon fill="#000000" stroke="#000000" points="466.8767,-140.8506 470.3766,-150.8507 473.8767,-140.8507 466.8767,-140.8506"/>
</g>
<!-- RecetasService -->
<g id="node7" class="node">
<title>RecetasService</title>
<ellipse fill="#fdb462" stroke="#000000" cx="234" cy="-104" rx="70.0365" ry="18"/>
<text text-anchor="middle" x="234" y="-99.8" font-family="Times,serif" font-size="14.00" fill="#000000">RecetasService</text>
</g>
<!-- RecetasService&#45;&gt;AppModule -->
<g id="edge6" class="edge">
<title>RecetasService&#45;&gt;AppModule</title>
<path fill="none" stroke="#000000" d="M234,-122.0225C234,-139.3734 234,-163 234,-163 234,-163 437.1775,-163 437.1775,-163"/>
<polygon fill="#000000" stroke="#000000" points="437.1775,-166.5001 447.1775,-163 437.1774,-159.5001 437.1775,-166.5001"/>
</g>
<!-- ToastService -->
<g id="node8" class="node">
<title>ToastService</title>
<ellipse fill="#fdb462" stroke="#000000" cx="85" cy="-104" rx="61.3916" ry="18"/>
<text text-anchor="middle" x="85" y="-99.8" font-family="Times,serif" font-size="14.00" fill="#000000">ToastService</text>
</g>
<!-- ToastService&#45;&gt;AppModule -->
<g id="edge7" class="edge">
<title>ToastService&#45;&gt;AppModule</title>
<path fill="none" stroke="#000000" d="M85,-122.2843C85,-143.3211 85,-175 85,-175 85,-175 437.2866,-175 437.2866,-175"/>
<polygon fill="#000000" stroke="#000000" points="437.2866,-178.5001 447.2866,-175 437.2865,-171.5001 437.2866,-178.5001"/>
</g>
</g>
</svg>
