<?xml version="1.0" encoding="UTF-8" standalone="no"?>
<!DOCTYPE svg PUBLIC "-//W3C//DTD SVG 1.1//EN"
 "http://www.w3.org/Graphics/SVG/1.1/DTD/svg11.dtd">
<!-- Generated by graphviz version 2.40.1 (20161225.0304)
 -->
<!-- Title: dependencies Pages: 1 -->
<svg width="2364pt" height="284pt"
 viewBox="0.00 0.00 2364.00 284.00" xmlns="http://www.w3.org/2000/svg" xmlns:xlink="http://www.w3.org/1999/xlink">
<g id="graph0" class="graph" transform="scale(1 1) rotate(0) translate(4 280)">
<title>dependencies</title>
<polygon fill="#ffffff" stroke="transparent" points="-4,4 -4,-280 2360,-280 2360,4 -4,4"/>
<text text-anchor="start" x="1157.0091" y="-42.4" font-family="sans-serif" font-weight="bold" font-size="14.00" fill="#000000">Legend</text>
<polygon fill="#ffffb3" stroke="transparent" points="944,-10 944,-30 964,-30 964,-10 944,-10"/>
<text text-anchor="start" x="967.629" y="-15.4" font-family="sans-serif" font-size="14.00" fill="#000000"> &#160;Declarations</text>
<polygon fill="#8dd3c7" stroke="transparent" points="1057,-10 1057,-30 1077,-30 1077,-10 1057,-10"/>
<text text-anchor="start" x="1080.7251" y="-15.4" font-family="sans-serif" font-size="14.00" fill="#000000"> &#160;Module</text>
<polygon fill="#80b1d3" stroke="transparent" points="1143,-10 1143,-30 1163,-30 1163,-10 1143,-10"/>
<text text-anchor="start" x="1166.7812" y="-15.4" font-family="sans-serif" font-size="14.00" fill="#000000"> &#160;Bootstrap</text>
<polygon fill="#fdb462" stroke="transparent" points="1240,-10 1240,-30 1260,-30 1260,-10 1240,-10"/>
<text text-anchor="start" x="1263.6732" y="-15.4" font-family="sans-serif" font-size="14.00" fill="#000000"> &#160;Providers</text>
<polygon fill="#fb8072" stroke="transparent" points="1336,-10 1336,-30 1356,-30 1356,-10 1336,-10"/>
<text text-anchor="start" x="1359.7258" y="-15.4" font-family="sans-serif" font-size="14.00" fill="#000000"> &#160;Exports</text>
<g id="clust1" class="cluster">
<title>cluster_AppModule</title>
<polygon fill="none" stroke="#000000" stroke-dasharray="1,5" points="8,-70 8,-268 928,-268 928,-70 8,-70"/>
</g>
<g id="clust2" class="cluster">
<title>cluster_AppModule_declarations</title>
<polygon fill="none" stroke="#000000" points="798,-78 798,-130 920,-130 920,-78 798,-78"/>
</g>
<g id="clust4" class="cluster">
<title>cluster_AppModule_imports</title>
<polygon fill="none" stroke="#000000" points="646,-78 646,-130 790,-130 790,-78 646,-78"/>
</g>
<g id="clust6" class="cluster">
<title>cluster_AppModule_bootstrap</title>
<polygon fill="none" stroke="#000000" points="427,-208 427,-260 551,-260 551,-208 427,-208"/>
</g>
<g id="clust7" class="cluster">
<title>cluster_AppModule_providers</title>
<polygon fill="none" stroke="#000000" points="16,-78 16,-130 638,-130 638,-78 16,-78"/>
</g>
<g id="clust14" class="cluster">
<title>cluster_CocinadasPageModule</title>
<polygon fill="none" stroke="#000000" stroke-dasharray="1,5" points="936,-70 936,-195 1098,-195 1098,-70 936,-70"/>
</g>
<g id="clust15" class="cluster">
<title>cluster_CocinadasPageModule_declarations</title>
<polygon fill="none" stroke="#000000" points="958,-78 958,-130 1076,-130 1076,-78 958,-78"/>
</g>
<g id="clust21" class="cluster">
<title>cluster_InicioModule</title>
<polygon fill="none" stroke="#000000" stroke-dasharray="1,5" points="1106,-70 1106,-195 1214,-195 1214,-70 1106,-70"/>
</g>
<g id="clust22" class="cluster">
<title>cluster_InicioModule_declarations</title>
<polygon fill="none" stroke="#000000" points="1114,-78 1114,-130 1206,-130 1206,-78 1114,-78"/>
</g>
<g id="clust28" class="cluster">
<title>cluster_LoginPageModule</title>
<polygon fill="none" stroke="#000000" stroke-dasharray="1,5" points="1222,-70 1222,-195 1358,-195 1358,-70 1222,-70"/>
</g>
<g id="clust29" class="cluster">
<title>cluster_LoginPageModule_declarations</title>
<polygon fill="none" stroke="#000000" points="1244,-78 1244,-130 1336,-130 1336,-78 1244,-78"/>
</g>
<g id="clust35" class="cluster">
<title>cluster_PerfilModule</title>
<polygon fill="none" stroke="#000000" stroke-dasharray="1,5" points="1366,-70 1366,-195 1472,-195 1472,-70 1366,-70"/>
</g>
<g id="clust36" class="cluster">
<title>cluster_PerfilModule_declarations</title>
<polygon fill="none" stroke="#000000" points="1374,-78 1374,-130 1464,-130 1464,-78 1374,-78"/>
</g>
<g id="clust42" class="cluster">
<title>cluster_RecetaPageModule</title>
<polygon fill="none" stroke="#000000" stroke-dasharray="1,5" points="1480,-70 1480,-195 1620,-195 1620,-70 1480,-70"/>
</g>
<g id="clust43" class="cluster">
<title>cluster_RecetaPageModule_declarations</title>
<polygon fill="none" stroke="#000000" points="1501,-78 1501,-130 1599,-130 1599,-78 1501,-78"/>
</g>
<g id="clust49" class="cluster">
<title>cluster_RecetasModule</title>
<polygon fill="none" stroke="#000000" stroke-dasharray="1,5" points="1628,-70 1628,-195 1748,-195 1748,-70 1628,-70"/>
</g>
<g id="clust50" class="cluster">
<title>cluster_RecetasModule_declarations</title>
<polygon fill="none" stroke="#000000" points="1637,-78 1637,-130 1739,-130 1739,-78 1637,-78"/>
</g>
<g id="clust56" class="cluster">
<title>cluster_SettingsPageModule</title>
<polygon fill="none" stroke="#000000" stroke-dasharray="1,5" points="1756,-70 1756,-195 1904,-195 1904,-70 1756,-70"/>
</g>
<g id="clust57" class="cluster">
<title>cluster_SettingsPageModule_declarations</title>
<polygon fill="none" stroke="#000000" points="1778,-78 1778,-130 1882,-130 1882,-78 1778,-78"/>
</g>
<g id="clust63" class="cluster">
<title>cluster_SignupPageModule</title>
<polygon fill="none" stroke="#000000" stroke-dasharray="1,5" points="1912,-70 1912,-195 2054,-195 2054,-70 1912,-70"/>
</g>
<g id="clust64" class="cluster">
<title>cluster_SignupPageModule_declarations</title>
<polygon fill="none" stroke="#000000" points="1934,-78 1934,-130 2032,-130 2032,-78 1934,-78"/>
</g>
<g id="clust70" class="cluster">
<title>cluster_TabsPageModule</title>
<polygon fill="none" stroke="#000000" stroke-dasharray="1,5" points="2062,-70 2062,-195 2348,-195 2348,-70 2062,-70"/>
</g>
<g id="clust71" class="cluster">
<title>cluster_TabsPageModule_declarations</title>
<polygon fill="none" stroke="#000000" points="2254,-78 2254,-130 2340,-130 2340,-78 2254,-78"/>
</g>
<g id="clust73" class="cluster">
<title>cluster_TabsPageModule_imports</title>
<polygon fill="none" stroke="#000000" points="2070,-78 2070,-130 2246,-130 2246,-78 2070,-78"/>
</g>
<!-- AppComponent -->
<g id="node1" class="node">
<title>AppComponent</title>
<polygon fill="#ffffb3" stroke="#000000" points="911.9399,-122 806.0601,-122 806.0601,-86 911.9399,-86 911.9399,-122"/>
<text text-anchor="middle" x="859" y="-99.8" font-family="Times,serif" font-size="14.00" fill="#000000">AppComponent</text>
</g>
<!-- AppModule -->
<g id="node2" class="node">
<title>AppModule</title>
<polygon fill="#8dd3c7" stroke="#000000" points="530.6571,-187 527.6571,-191 506.6571,-191 503.6571,-187 447.3429,-187 447.3429,-151 530.6571,-151 530.6571,-187"/>
<text text-anchor="middle" x="489" y="-164.8" font-family="Times,serif" font-size="14.00" fill="#000000">AppModule</text>
</g>
<!-- AppComponent&#45;&gt;AppModule -->
<g id="edge1" class="edge">
<title>AppComponent&#45;&gt;AppModule</title>
<path fill="none" stroke="#000000" d="M859,-122.2843C859,-143.3211 859,-175 859,-175 859,-175 540.7245,-175 540.7245,-175"/>
<polygon fill="#000000" stroke="#000000" points="540.7245,-171.5001 530.7245,-175 540.7244,-178.5001 540.7245,-171.5001"/>
</g>
<!-- AppComponent  -->
<g id="node4" class="node">
<title>AppComponent </title>
<polygon fill="#80b1d3" stroke="#000000" points="543.439,-252 434.561,-252 434.561,-216 543.439,-216 543.439,-252"/>
<text text-anchor="middle" x="489" y="-229.8" font-family="Times,serif" font-size="14.00" fill="#000000">AppComponent </text>
</g>
<!-- AppModule&#45;&gt;AppComponent  -->
<g id="edge3" class="edge">
<title>AppModule&#45;&gt;AppComponent </title>
<path fill="none" stroke="#000000" stroke-dasharray="1,5" d="M489,-187.1061C489,-187.1061 489,-205.991 489,-205.991"/>
<polygon fill="#000000" stroke="#000000" points="485.5001,-205.9909 489,-215.991 492.5001,-205.991 485.5001,-205.9909"/>
</g>
<!-- AppRoutingModule -->
<g id="node3" class="node">
<title>AppRoutingModule</title>
<polygon fill="#8dd3c7" stroke="#000000" points="782.2744,-122 779.2744,-126 758.2744,-126 755.2744,-122 653.7256,-122 653.7256,-86 782.2744,-86 782.2744,-122"/>
<text text-anchor="middle" x="718" y="-99.8" font-family="Times,serif" font-size="14.00" fill="#000000">AppRoutingModule</text>
</g>
<!-- AppRoutingModule&#45;&gt;AppModule -->
<g id="edge2" class="edge">
<title>AppRoutingModule&#45;&gt;AppModule</title>
<path fill="none" stroke="#000000" d="M718,-122.0225C718,-139.3734 718,-163 718,-163 718,-163 540.7359,-163 540.7359,-163"/>
<polygon fill="#000000" stroke="#000000" points="540.7359,-159.5001 530.7359,-163 540.7358,-166.5001 540.7359,-159.5001"/>
</g>
<!-- AuthService -->
<g id="node5" class="node">
<title>AuthService</title>
<ellipse fill="#fdb462" stroke="#000000" cx="571" cy="-104" rx="59.1083" ry="18"/>
<text text-anchor="middle" x="571" y="-99.8" font-family="Times,serif" font-size="14.00" fill="#000000">AuthService</text>
</g>
<!-- AuthService&#45;&gt;AppModule -->
<g id="edge4" class="edge">
<title>AuthService&#45;&gt;AppModule</title>
<path fill="none" stroke="#000000" d="M521.2622,-113.8721C521.2622,-113.8721 521.2622,-140.9074 521.2622,-140.9074"/>
<polygon fill="#000000" stroke="#000000" points="517.7623,-140.9073 521.2622,-150.9074 524.7623,-140.9074 517.7623,-140.9073"/>
</g>
<!-- EstadisticasService -->
<g id="node6" class="node">
<title>EstadisticasService</title>
<ellipse fill="#fdb462" stroke="#000000" cx="408" cy="-104" rx="85.6628" ry="18"/>
<text text-anchor="middle" x="408" y="-99.8" font-family="Times,serif" font-size="14.00" fill="#000000">EstadisticasService</text>
</g>
<!-- EstadisticasService&#45;&gt;AppModule -->
<g id="edge5" class="edge">
<title>EstadisticasService&#45;&gt;AppModule</title>
<path fill="none" stroke="#000000" d="M470.3766,-116.5327C470.3766,-116.5327 470.3766,-140.8507 470.3766,-140.8507"/>
<polygon fill="#000000" stroke="#000000" points="466.8767,-140.8506 470.3766,-150.8507 473.8767,-140.8507 466.8767,-140.8506"/>
</g>
<!-- RecetasService -->
<g id="node7" class="node">
<title>RecetasService</title>
<ellipse fill="#fdb462" stroke="#000000" cx="234" cy="-104" rx="70.0365" ry="18"/>
<text text-anchor="middle" x="234" y="-99.8" font-family="Times,serif" font-size="14.00" fill="#000000">RecetasService</text>
</g>
<!-- RecetasService&#45;&gt;AppModule -->
<g id="edge6" class="edge">
<title>RecetasService&#45;&gt;AppModule</title>
<path fill="none" stroke="#000000" d="M234,-122.0225C234,-139.3734 234,-163 234,-163 234,-163 437.1775,-163 437.1775,-163"/>
<polygon fill="#000000" stroke="#000000" points="437.1775,-166.5001 447.1775,-163 437.1774,-159.5001 437.1775,-166.5001"/>
</g>
<!-- ToastService -->
<g id="node8" class="node">
<title>ToastService</title>
<ellipse fill="#fdb462" stroke="#000000" cx="85" cy="-104" rx="61.3916" ry="18"/>
<text text-anchor="middle" x="85" y="-99.8" font-family="Times,serif" font-size="14.00" fill="#000000">ToastService</text>
</g>
<!-- ToastService&#45;&gt;AppModule -->
<g id="edge7" class="edge">
<title>ToastService&#45;&gt;AppModule</title>
<path fill="none" stroke="#000000" d="M85,-122.2843C85,-143.3211 85,-175 85,-175 85,-175 437.2866,-175 437.2866,-175"/>
<polygon fill="#000000" stroke="#000000" points="437.2866,-178.5001 447.2866,-175 437.2865,-171.5001 437.2866,-178.5001"/>
</g>
<!-- CocinadasPage -->
<g id="node9" class="node">
<title>CocinadasPage</title>
<polygon fill="#ffffb3" stroke="#000000" points="1067.5285,-122 966.4715,-122 966.4715,-86 1067.5285,-86 1067.5285,-122"/>
<text text-anchor="middle" x="1017" y="-99.8" font-family="Times,serif" font-size="14.00" fill="#000000">CocinadasPage</text>
</g>
<!-- CocinadasPageModule -->
<g id="node10" class="node">
<title>CocinadasPageModule</title>
<polygon fill="#8dd3c7" stroke="#000000" points="1089.5772,-187 1086.5772,-191 1065.5772,-191 1062.5772,-187 944.4228,-187 944.4228,-151 1089.5772,-151 1089.5772,-187"/>
<text text-anchor="middle" x="1017" y="-164.8" font-family="Times,serif" font-size="14.00" fill="#000000">CocinadasPageModule</text>
</g>
<!-- CocinadasPage&#45;&gt;CocinadasPageModule -->
<g id="edge8" class="edge">
<title>CocinadasPage&#45;&gt;CocinadasPageModule</title>
<path fill="none" stroke="#000000" d="M1017,-122.1061C1017,-122.1061 1017,-140.991 1017,-140.991"/>
<polygon fill="#000000" stroke="#000000" points="1013.5001,-140.9909 1017,-150.991 1020.5001,-140.991 1013.5001,-140.9909"/>
</g>
<!-- InicioPage -->
<g id="node11" class="node">
<title>InicioPage</title>
<polygon fill="#ffffb3" stroke="#000000" points="1197.8683,-122 1122.1317,-122 1122.1317,-86 1197.8683,-86 1197.8683,-122"/>
<text text-anchor="middle" x="1160" y="-99.8" font-family="Times,serif" font-size="14.00" fill="#000000">InicioPage</text>
</g>
<!-- InicioModule -->
<g id="node12" class="node">
<title>InicioModule</title>
<polygon fill="#8dd3c7" stroke="#000000" points="1206.2064,-187 1203.2064,-191 1182.2064,-191 1179.2064,-187 1113.7936,-187 1113.7936,-151 1206.2064,-151 1206.2064,-187"/>
<text text-anchor="middle" x="1160" y="-164.8" font-family="Times,serif" font-size="14.00" fill="#000000">InicioModule</text>
</g>
<!-- InicioPage&#45;&gt;InicioModule -->
<g id="edge9" class="edge">
<title>InicioPage&#45;&gt;InicioModule</title>
<path fill="none" stroke="#000000" d="M1160,-122.1061C1160,-122.1061 1160,-140.991 1160,-140.991"/>
<polygon fill="#000000" stroke="#000000" points="1156.5001,-140.9909 1160,-150.991 1163.5001,-140.991 1156.5001,-140.9909"/>
</g>
<!-- LoginPage -->
<g id="node13" class="node">
<title>LoginPage</title>
<polygon fill="#ffffb3" stroke="#000000" points="1328.1558,-122 1251.8442,-122 1251.8442,-86 1328.1558,-86 1328.1558,-122"/>
<text text-anchor="middle" x="1290" y="-99.8" font-family="Times,serif" font-size="14.00" fill="#000000">LoginPage</text>
</g>
<!-- LoginPageModule -->
<g id="node14" class="node">
<title>LoginPageModule</title>
<polygon fill="#8dd3c7" stroke="#000000" points="1350.205,-187 1347.205,-191 1326.205,-191 1323.205,-187 1229.795,-187 1229.795,-151 1350.205,-151 1350.205,-187"/>
<text text-anchor="middle" x="1290" y="-164.8" font-family="Times,serif" font-size="14.00" fill="#000000">LoginPageModule</text>
</g>
<!-- LoginPage&#45;&gt;LoginPageModule -->
<g id="edge10" class="edge">
<title>LoginPage&#45;&gt;LoginPageModule</title>
<path fill="none" stroke="#000000" d="M1290,-122.1061C1290,-122.1061 1290,-140.991 1290,-140.991"/>
<polygon fill="#000000" stroke="#000000" points="1286.5001,-140.9909 1290,-150.991 1293.5001,-140.991 1286.5001,-140.9909"/>
</g>
<!-- PerfilPage -->
<g id="node15" class="node">
<title>PerfilPage</title>
<polygon fill="#ffffb3" stroke="#000000" points="1456.3121,-122 1381.6879,-122 1381.6879,-86 1456.3121,-86 1456.3121,-122"/>
<text text-anchor="middle" x="1419" y="-99.8" font-family="Times,serif" font-size="14.00" fill="#000000">PerfilPage</text>
</g>
<!-- PerfilModule -->
<g id="node16" class="node">
<title>PerfilModule</title>
<polygon fill="#8dd3c7" stroke="#000000" points="1464.1501,-187 1461.1501,-191 1440.1501,-191 1437.1501,-187 1373.8499,-187 1373.8499,-151 1464.1501,-151 1464.1501,-187"/>
<text text-anchor="middle" x="1419" y="-164.8" font-family="Times,serif" font-size="14.00" fill="#000000">PerfilModule</text>
</g>
<!-- PerfilPage&#45;&gt;PerfilModule -->
<g id="edge11" class="edge">
<title>PerfilPage&#45;&gt;PerfilModule</title>
<path fill="none" stroke="#000000" d="M1419,-122.1061C1419,-122.1061 1419,-140.991 1419,-140.991"/>
<polygon fill="#000000" stroke="#000000" points="1415.5001,-140.9909 1419,-150.991 1422.5001,-140.991 1415.5001,-140.9909"/>
</g>
<!-- RecetaPage -->
<g id="node17" class="node">
<title>RecetaPage</title>
<polygon fill="#ffffb3" stroke="#000000" points="1590.7979,-122 1509.2021,-122 1509.2021,-86 1590.7979,-86 1590.7979,-122"/>
<text text-anchor="middle" x="1550" y="-99.8" font-family="Times,serif" font-size="14.00" fill="#000000">RecetaPage</text>
</g>
<!-- RecetaPageModule -->
<g id="node18" class="node">
<title>RecetaPageModule</title>
<polygon fill="#8dd3c7" stroke="#000000" points="1612.3473,-187 1609.3473,-191 1588.3473,-191 1585.3473,-187 1487.6527,-187 1487.6527,-151 1612.3473,-151 1612.3473,-187"/>
<text text-anchor="middle" x="1550" y="-164.8" font-family="Times,serif" font-size="14.00" fill="#000000">RecetaPageModule</text>
</g>
<!-- RecetaPage&#45;&gt;RecetaPageModule -->
<g id="edge12" class="edge">
<title>RecetaPage&#45;&gt;RecetaPageModule</title>
<path fill="none" stroke="#000000" d="M1550,-122.1061C1550,-122.1061 1550,-140.991 1550,-140.991"/>
<polygon fill="#000000" stroke="#000000" points="1546.5001,-140.9909 1550,-150.991 1553.5001,-140.991 1546.5001,-140.9909"/>
</g>
<!-- RecetasPage -->
<g id="node19" class="node">
<title>RecetasPage</title>
<polygon fill="#ffffb3" stroke="#000000" points="1731.2424,-122 1644.7576,-122 1644.7576,-86 1731.2424,-86 1731.2424,-122"/>
<text text-anchor="middle" x="1688" y="-99.8" font-family="Times,serif" font-size="14.00" fill="#000000">RecetasPage</text>
</g>
<!-- RecetasModule -->
<g id="node20" class="node">
<title>RecetasModule</title>
<polygon fill="#8dd3c7" stroke="#000000" points="1739.58,-187 1736.58,-191 1715.58,-191 1712.58,-187 1636.42,-187 1636.42,-151 1739.58,-151 1739.58,-187"/>
<text text-anchor="middle" x="1688" y="-164.8" font-family="Times,serif" font-size="14.00" fill="#000000">RecetasModule</text>
</g>
<!-- RecetasPage&#45;&gt;RecetasModule -->
<g id="edge13" class="edge">
<title>RecetasPage&#45;&gt;RecetasModule</title>
<path fill="none" stroke="#000000" d="M1688,-122.1061C1688,-122.1061 1688,-140.991 1688,-140.991"/>
<polygon fill="#000000" stroke="#000000" points="1684.5001,-140.9909 1688,-150.991 1691.5001,-140.991 1684.5001,-140.9909"/>
</g>
<!-- SettingsPage -->
<g id="node21" class="node">
<title>SettingsPage</title>
<polygon fill="#ffffb3" stroke="#000000" points="1874.326,-122 1785.674,-122 1785.674,-86 1874.326,-86 1874.326,-122"/>
<text text-anchor="middle" x="1830" y="-99.8" font-family="Times,serif" font-size="14.00" fill="#000000">SettingsPage</text>
</g>
<!-- SettingsPageModule -->
<g id="node22" class="node">
<title>SettingsPageModule</title>
<polygon fill="#8dd3c7" stroke="#000000" points="1895.8753,-187 1892.8753,-191 1871.8753,-191 1868.8753,-187 1764.1247,-187 1764.1247,-151 1895.8753,-151 1895.8753,-187"/>
<text text-anchor="middle" x="1830" y="-164.8" font-family="Times,serif" font-size="14.00" fill="#000000">SettingsPageModule</text>
</g>
<!-- SettingsPage&#45;&gt;SettingsPageModule -->
<g id="edge14" class="edge">
<title>SettingsPage&#45;&gt;SettingsPageModule</title>
<path fill="none" stroke="#000000" d="M1830,-122.1061C1830,-122.1061 1830,-140.991 1830,-140.991"/>
<polygon fill="#000000" stroke="#000000" points="1826.5001,-140.9909 1830,-150.991 1833.5001,-140.991 1826.5001,-140.9909"/>
</g>
<!-- SignupPage -->
<g id="node23" class="node">
<title>SignupPage</title>
<polygon fill="#ffffb3" stroke="#000000" points="2024.3851,-122 1941.6149,-122 1941.6149,-86 2024.3851,-86 2024.3851,-122"/>
<text text-anchor="middle" x="1983" y="-99.8" font-family="Times,serif" font-size="14.00" fill="#000000">SignupPage</text>
</g>
<!-- SignupPageModule -->
<g id="node24" class="node">
<title>SignupPageModule</title>
<polygon fill="#8dd3c7" stroke="#000000" points="2046.4356,-187 2043.4356,-191 2022.4356,-191 2019.4356,-187 1919.5644,-187 1919.5644,-151 2046.4356,-151 2046.4356,-187"/>
<text text-anchor="middle" x="1983" y="-164.8" font-family="Times,serif" font-size="14.00" fill="#000000">SignupPageModule</text>
</g>
<!-- SignupPage&#45;&gt;SignupPageModule -->
<g id="edge15" class="edge">
<title>SignupPage&#45;&gt;SignupPageModule</title>
<path fill="none" stroke="#000000" d="M1983,-122.1061C1983,-122.1061 1983,-140.991 1983,-140.991"/>
<polygon fill="#000000" stroke="#000000" points="1979.5001,-140.9909 1983,-150.991 1986.5001,-140.991 1979.5001,-140.9909"/>
</g>
<!-- TabsPage -->
<g id="node25" class="node">
<title>TabsPage</title>
<polygon fill="#ffffb3" stroke="#000000" points="2332.4249,-122 2261.5751,-122 2261.5751,-86 2332.4249,-86 2332.4249,-122"/>
<text text-anchor="middle" x="2297" y="-99.8" font-family="Times,serif" font-size="14.00" fill="#000000">TabsPage</text>
</g>
<!-- TabsPageModule -->
<g id="node26" class="node">
<title>TabsPageModule</title>
<polygon fill="#8dd3c7" stroke="#000000" points="2276.9734,-187 2273.9734,-191 2252.9734,-191 2249.9734,-187 2163.0266,-187 2163.0266,-151 2276.9734,-151 2276.9734,-187"/>
<text text-anchor="middle" x="2220" y="-164.8" font-family="Times,serif" font-size="14.00" fill="#000000">TabsPageModule</text>
</g>
<!-- TabsPage&#45;&gt;TabsPageModule -->
<g id="edge16" class="edge">
<title>TabsPage&#45;&gt;TabsPageModule</title>
<path fill="none" stroke="#000000" d="M2269.3875,-122.1061C2269.3875,-122.1061 2269.3875,-140.991 2269.3875,-140.991"/>
<polygon fill="#000000" stroke="#000000" points="2265.8875,-140.9909 2269.3875,-150.991 2272.8875,-140.991 2265.8875,-140.9909"/>
</g>
<!-- TabsPageRoutingModule -->
<g id="node27" class="node">
<title>TabsPageRoutingModule</title>
<polygon fill="#8dd3c7" stroke="#000000" points="2237.5912,-122 2234.5912,-126 2213.5912,-126 2210.5912,-122 2078.4088,-122 2078.4088,-86 2237.5912,-86 2237.5912,-122"/>
<text text-anchor="middle" x="2158" y="-99.8" font-family="Times,serif" font-size="14.00" fill="#000000">TabsPageRoutingModule</text>
</g>
<!-- TabsPageRoutingModule&#45;&gt;TabsPageModule -->
<g id="edge17" class="edge">
<title>TabsPageRoutingModule&#45;&gt;TabsPageModule</title>
<path fill="none" stroke="#000000" d="M2200.2795,-122.1061C2200.2795,-122.1061 2200.2795,-140.991 2200.2795,-140.991"/>
<polygon fill="#000000" stroke="#000000" points="2196.7795,-140.9909 2200.2795,-150.991 2203.7795,-140.991 2196.7795,-140.9909"/>
</g>
</g>
</svg>
